<svg id="Layer_1" data-name="Layer 1" xmlns="http://www.w3.org/2000/svg" viewBox="0 0 26.25 32.66"><title>ic_bagde</title><path d="M25.88,9.64A11.13,11.13,0,1,1,14.75,20.77,11.14,11.14,0,0,1,25.88,9.64m0-2A13.13,13.13,0,1,0,39,20.77,13.13,13.13,0,0,0,25.88,7.64Z" transform="translate(-12.75 -7.64)"/><path d="M34.08,40.3a1,1,0,0,1-.42-.09l-7.78-3.56-7.79,3.56a1,1,0,0,1-1-.07,1,1,0,0,1-.46-.84V30a1,1,0,1,1,2,0v7.72l6.79-3.1a1,1,0,0,1,.83,0l6.79,3.1V30a1,1,0,1,1,2,0V39.3a1,1,0,0,1-.46.84A1,1,0,0,1,34.08,40.3Z" transform="translate(-12.75 -7.64)"/></svg>