<svg id="Layer_1" data-name="Layer 1" xmlns="http://www.w3.org/2000/svg" viewBox="0 0 23.57 24.69"><title>ic_edit</title><path d="M17.1,29.61a.78.78,0,0,1-.52-.21.79.79,0,0,1-.21-.76l1.35-4.78,10.4-11.19a.84.84,0,0,1,1.2-.05l3,2.83a.9.9,0,0,1,.27.59.81.81,0,0,1-.23.61L21.85,28l-4.51,1.54A1,1,0,0,1,17.1,29.61Zm1.52-5.24-1.16,4.1,3.83-1.31L31.58,16.08l-2.83-2.62Zm10.23-11Z" transform="translate(-11.43 -9.74)"/><path d="M32.68,16.07a.55.55,0,0,1-.34-.13l-3.56-3.31a.48.48,0,0,1-.16-.35.49.49,0,0,1,.13-.36l1-1.08c1-1.1,2.39-1.43,3.12-.75l1.69,1.57c.73.67.5,2.07-.51,3.16l-1,1.09A.5.5,0,0,1,32.68,16.07Zm-2.85-3.83,2.82,2.62.67-.72c.7-.74.8-1.53.57-1.75L32.2,10.82c-.23-.21-1-.05-1.71.7Z" transform="translate(-11.43 -9.74)"/><polygon points="9.91 18.1 8.61 15.97 6.39 14.84 6.84 13.95 9.32 15.21 10.76 17.58 9.91 18.1"/><path d="M28.05,34.42h-14a2.64,2.64,0,0,1-2.64-2.64v-14a2.64,2.64,0,0,1,2.64-2.64h10a.5.5,0,0,1,.5.5.5.5,0,0,1-.5.5h-10a1.64,1.64,0,0,0-1.64,1.64v14a1.64,1.64,0,0,0,1.64,1.64h14a1.64,1.64,0,0,0,1.64-1.64V20.85a.5.5,0,0,1,.5-.5.51.51,0,0,1,.5.5V31.78A2.64,2.64,0,0,1,28.05,34.42Z" transform="translate(-11.43 -9.74)"/></svg>