<svg id="Layer_1" data-name="Layer 1" xmlns="http://www.w3.org/2000/svg" viewBox="0 0 18.65 19.87"><title>ic_edit_pencil</title><path d="M14.1,32.61a.78.78,0,0,1-.52-.21.79.79,0,0,1-.21-.76l1.35-4.78,10.4-11.19a.84.84,0,0,1,1.2-.05l3.05,2.83a.9.9,0,0,1,.27.59.81.81,0,0,1-.23.61L18.85,31l-4.51,1.54A1,1,0,0,1,14.1,32.61Zm1.52-5.24-1.16,4.1,3.83-1.31L28.58,19.08l-2.83-2.62Zm10.23-11Z" transform="translate(-13.34 -12.74)"/><path d="M29.68,19.07a.55.55,0,0,1-.34-.13l-3.56-3.31a.48.48,0,0,1-.16-.35.49.49,0,0,1,.13-.36l1-1.08c1-1.1,2.39-1.43,3.12-.75l1.69,1.57c.73.67.5,2.07-.51,3.16l-1,1.09A.5.5,0,0,1,29.68,19.07Zm-2.85-3.83,2.82,2.62.67-.72c.7-.74.8-1.53.57-1.75L29.2,13.82c-.23-.21-1-.05-1.71.7Z" transform="translate(-13.34 -12.74)"/><polygon points="4.99 18.1 3.7 15.97 1.48 14.84 1.93 13.95 4.41 15.2 5.85 17.58 4.99 18.1"/></svg>