<svg id="Layer_1" data-name="Layer 1" xmlns="http://www.w3.org/2000/svg" viewBox="0 0 40.96 28.38"><title>ic_edu_notebook</title><path d="M24.36,39.41h-19a1,1,0,0,1-1-1V14.49a1,1,0,0,1,1-1H8.13a1,1,0,0,1,0,2H6.38V37.41h5.16l-3.9-.62a1,1,0,1,1,.31-2l16.56,2.6a1,1,0,0,1,.85,1.06A1,1,0,0,1,24.36,39.41Z" transform="translate(-4.38 -11.03)"/><path d="M24.36,39.4a1,1,0,0,1-.61-.2,27.13,27.13,0,0,0-15.6-4.7,1,1,0,0,1-.72-.29,1,1,0,0,1-.3-.71V12a1,1,0,0,1,1-1A29,29,0,0,1,25,16.15a1,1,0,0,1,.39.79V38.41a1,1,0,0,1-.56.89A1,1,0,0,1,24.36,39.4ZM9.13,32.5a29.19,29.19,0,0,1,14.23,4V17.46A27.55,27.55,0,0,0,9.13,13Z" transform="translate(-4.38 -11.03)"/><path d="M44.34,39.41h-20a1,1,0,0,1-1-.93,1,1,0,0,1,.85-1.06l17.45-2.61a1,1,0,0,1,1.14.85A1,1,0,0,1,42,36.79l-4.1.62h5.49V15.49H41.45a1,1,0,0,1,0-2h2.89a1,1,0,0,1,1,1V38.41A1,1,0,0,1,44.34,39.41Z" transform="translate(-4.38 -11.03)"/><path d="M24.36,39.41a1,1,0,0,1-.45-.11,1,1,0,0,1-.55-.89V16.94a1,1,0,0,1,.41-.8A31.13,31.13,0,0,1,41.47,11a1,1,0,0,1,1,1V33.5a1,1,0,0,1-.3.71,1,1,0,0,1-.72.29A29.75,29.75,0,0,0,25,39.21,1,1,0,0,1,24.36,39.41Zm1-21.93V36.59A32,32,0,0,1,40.45,32.5V13A30.08,30.08,0,0,0,25.36,17.48Z" transform="translate(-4.38 -11.03)"/></svg>