<svg id="Layer_1" data-name="Layer 1" xmlns="http://www.w3.org/2000/svg" viewBox="0 0 40.99 21.34"><title>ic_edu_graduation</title><path d="M40.65,33l-.24,0a1.2,1.2,0,0,1-1-1.06.86.86,0,0,1,0-.16h0A7.52,7.52,0,0,0,39.07,30a7.83,7.83,0,0,0-.69-1.82l-.06-.11a18.52,18.52,0,0,0-.93-1.8,5.67,5.67,0,0,0-.72-1.08l-.22-.25a2.08,2.08,0,0,0-.46-.45l-8.43,2.94-4.18,1.38-.81.25a1.4,1.4,0,0,1-1,0L9.4,25,7.1,24l-1.33-.66a1,1,0,0,1-.55-1,1,1,0,0,1,.67-.88l16-5.51a1,1,0,0,1,.65,0l16.34,5.55a1,1,0,0,1,.68.93,1,1,0,0,1-.34.76l.32.18a28.66,28.66,0,0,1,2.63,1.66A13.23,13.23,0,0,1,44.39,27a5.81,5.81,0,0,1,1.46,2.42,4.26,4.26,0,0,1,.33,2,1.21,1.21,0,0,1-.91.88,1.14,1.14,0,0,1-1.12-.44,6.39,6.39,0,0,0-.48-.5,7,7,0,0,0-.92-.84l-.2-.15a10,10,0,0,1-.45,1,7.37,7.37,0,0,1-.41.79A1.19,1.19,0,0,1,40.65,33Zm-.73-1.62v0ZM41.75,30h0Zm-1.62-2.75a9.37,9.37,0,0,1,.77,1.92c.07-.19.11-.32.11-.33a1.16,1.16,0,0,1,.66-.69,1.2,1.2,0,0,1,1,.07l.1.05A11.78,11.78,0,0,0,41,26.75c-.64-.46-1.22-.82-1.65-1.09C39.77,26.43,40.05,27,40.13,27.21Zm-17.56.1ZM22,27.15ZM8.88,22.63l1.24.52L18.59,26l3.54,1.12.63-.2L35.5,22.55,22.2,18Zm26.94,1.73Zm.53,0Zm0,0Z" transform="translate(-5.22 -15.97)"/><path d="M22.53,37.31A5.41,5.41,0,0,1,20.89,37c-1.63-.53-3.81-1.54-3.91-1.58-.87-.41-5.23-2.52-6.23-4a2,2,0,0,1-.1-1.63c0-.24.13-1.06.16-1.53s.22-2.42.22-2.42A1,1,0,0,1,12.34,25l9.81,3.29c.86-.27,6.59-2.16,10.43-3.42h0a1.08,1.08,0,0,1,.86.09,1.15,1.15,0,0,1,.52.85l.17,2h0s.16,1.53.19,1.73v.07a1.68,1.68,0,0,1,0,1.36,2.87,2.87,0,0,1-.74,1,20.23,20.23,0,0,1-5,3.14A33.4,33.4,0,0,1,24,37,3.62,3.62,0,0,1,22.53,37.31Zm-10-6.84a23.79,23.79,0,0,0,5.28,3.17,38.22,38.22,0,0,0,3.67,1.49,2.39,2.39,0,0,0,1.68.07,1.34,1.34,0,0,1,.26-.09,28.56,28.56,0,0,0,4.32-1.86,18.36,18.36,0,0,0,4.47-2.79l.09-.08a.57.57,0,0,0,.11-.11,1.6,1.6,0,0,1,0-.21l0-.2s0-.16-.21-1.88c0,0,0-.4-.07-.84-2.88.95-9.15,3-9.44,3.09a1.48,1.48,0,0,1-1.09,0l-8.63-2.9-.1,1.13c0,.58-.18,1.69-.18,1.69l0,.14C12.58,30.34,12.56,30.41,12.55,30.47Zm0,.14Zm20-.13h0Zm-20.17-.23.05.07ZM11.64,30h0Zm11.07-1.36Zm0,0Zm0,0h0Zm0,0Zm11.43-.83Z" transform="translate(-5.22 -15.97)"/></svg>