<svg id="Layer_1" data-name="Layer 1" xmlns="http://www.w3.org/2000/svg" viewBox="0 0 32.93 32.93"><title>ic_edu_initial</title><path d="M32.75,24H17.29a1,1,0,0,1-1-1V7.49a1,1,0,0,1,1-1H32.75a1,1,0,0,1,1,1V23A1,1,0,0,1,32.75,24ZM18.29,22H31.75V8.49H18.29Z" transform="translate(-8.53 -6.49)"/><path d="M28,18.85c-.38,0-.7-.47-1-1.42a17.31,17.31,0,0,1-.39-1.9q-.62.08-1.62.3l-1.6.33c-.2.53-.55,1.3-1,2.31a.59.59,0,0,1-.53.34.65.65,0,0,1-.43-.17.58.58,0,0,1-.19-.44,10.68,10.68,0,0,1,.91-2.2.66.66,0,0,1-.1-.37c0-.32.2-.53.59-.62q.69-1.29,1.74-3c.95-1.53,1.55-2.29,1.78-2.29s.54.22.65.66l.38,2,.9,4.2.35.95a2.76,2.76,0,0,1,.17.65.56.56,0,0,1-.19.44A.61.61,0,0,1,28,18.85ZM25.89,12l-1.72,2.78c.48-.12,1.22-.27,2.21-.45Z" transform="translate(-8.53 -6.49)"/><path d="M25,39.42H9.53a1,1,0,0,1-1-1V23a1,1,0,0,1,1-1H25a1,1,0,0,1,1,1V38.42A1,1,0,0,1,25,39.42Zm-14.47-2H24V24H10.53Z" transform="translate(-8.53 -6.49)"/><path d="M18.09,33.9a9.7,9.7,0,0,1-3.47.53.67.67,0,0,1-.49-.25.74.74,0,0,1-.23-.5V31.92c0-.57,0-1.4.11-2.46s.12-2,.13-2.5,0-.92.07-1.66a.46.46,0,0,1,.2-.39,6.19,6.19,0,0,1,1.86-.26,3.34,3.34,0,0,1,2,.73,2.48,2.48,0,0,1,1.13,2.06,2.86,2.86,0,0,1-1.21,2.44,4,4,0,0,1,1.36.86,1.44,1.44,0,0,1,.45,1,2,2,0,0,1-.79,1.42A4,4,0,0,1,18.09,33.9ZM17,30.72l-.64-.1h-.49a4.39,4.39,0,0,1-.69-.06c0,.51,0,1,0,1.36v1.25a8,8,0,0,0,2.58-.45,2.92,2.92,0,0,0,.81-.5c.25-.21.37-.37.37-.48s-.26-.4-.77-.64A6.41,6.41,0,0,0,17,30.72Zm-.68-4.84a6.05,6.05,0,0,0-.92.05l0,1.05-.12,2.34.92.07a2.53,2.53,0,0,0,1.49-.57,1.74,1.74,0,0,0,.63-1.38,1.39,1.39,0,0,0-.64-1.07A2.19,2.19,0,0,0,16.27,25.88Z" transform="translate(-8.53 -6.49)"/><path d="M40.47,39.42H25a1,1,0,0,1-1-1V23a1,1,0,0,1,1-1H40.47a1,1,0,0,1,1,1V38.42A1,1,0,0,1,40.47,39.42ZM26,37.42H39.47V24H26Z" transform="translate(-8.53 -6.49)"/><path d="M34.88,27.36a.62.62,0,0,1-.58-.45,1.08,1.08,0,0,0-.32-.47,1.76,1.76,0,0,0-.62-.07c-.59,0-1.24.45-1.95,1.34A5.6,5.6,0,0,0,30,31.12a2,2,0,0,0,.5,1.34A1.61,1.61,0,0,0,31.7,33,2.64,2.64,0,0,0,33,32.72,9.26,9.26,0,0,0,34,32a1,1,0,0,1,.51-.25A.56.56,0,0,1,35,32a.64.64,0,0,1,.17.44.61.61,0,0,1-.23.48,4.86,4.86,0,0,1-3.22,1.41,2.72,2.72,0,0,1-2.11-1,3.17,3.17,0,0,1-.84-2.2,6.8,6.8,0,0,1,1.72-4.19,3.87,3.87,0,0,1,2.89-1.79,4.44,4.44,0,0,1,.53,0,2.26,2.26,0,0,1,.41.09.64.64,0,0,1,.55-.31c.28,0,.46.19.53.55a6.83,6.83,0,0,1,.09,1.2.74.74,0,0,1-.13.44A.54.54,0,0,1,34.88,27.36Z" transform="translate(-8.53 -6.49)"/></svg>