<svg id="Layer_1" data-name="Layer 1" xmlns="http://www.w3.org/2000/svg" xmlns:xlink="http://www.w3.org/1999/xlink" viewBox="0 0 43.68 43.68"><defs><style>.cls-1{fill:url(#radial-gradient);}.cls-2{fill:#fff;}</style><radialGradient id="radial-gradient" cx="11.19" cy="37.53" fx="-16.20244276818246" r="88.8" gradientTransform="matrix(0.65, -0.76, 0.61, 0.53, -22.92, 22.77)" gradientUnits="userSpaceOnUse"><stop offset="0" stop-color="#f9ed32"/><stop offset="0.06" stop-color="#f8d939"/><stop offset="0.19" stop-color="#f5a54d"/><stop offset="0.37" stop-color="#f0536c"/><stop offset="0.45" stop-color="#ee2a7b"/><stop offset="0.6" stop-color="#9e2aa7"/><stop offset="0.74" stop-color="#5b2acd"/><stop offset="0.86" stop-color="#2a2ae8"/><stop offset="0.95" stop-color="#0b2af9"/><stop offset="1" stop-color="#002aff"/></radialGradient></defs><title>ic_insta</title><rect class="cls-1" width="43.68" height="43.68" rx="7.46"/><path class="cls-2" d="M32.52,42.49H18.61a11.21,11.21,0,0,1-11.2-11.2V19a11.21,11.21,0,0,1,11.2-11.2H32.52A11.21,11.21,0,0,1,43.71,19V31.29A11.21,11.21,0,0,1,32.52,42.49ZM18.61,10.32A8.72,8.72,0,0,0,9.9,19V31.29A8.72,8.72,0,0,0,18.61,40H32.52a8.72,8.72,0,0,0,8.71-8.71V19a8.72,8.72,0,0,0-8.71-8.71Z" transform="translate(-3.72 -3.32)"/><path class="cls-2" d="M25.56,35.13a10,10,0,1,1,10-10A10,10,0,0,1,25.56,35.13Zm0-17.45A7.48,7.48,0,1,0,33,25.16,7.49,7.49,0,0,0,25.56,17.68Z" transform="translate(-3.72 -3.32)"/><path class="cls-2" d="M37.44,15.5a2.07,2.07,0,1,1-2.06-2.07A2.07,2.07,0,0,1,37.44,15.5Z" transform="translate(-3.72 -3.32)"/></svg>