<svg id="Layer_1" data-name="Layer 1" xmlns="http://www.w3.org/2000/svg" viewBox="0 0 204.11 140.15"><title>rp_logo</title><path d="M78.2,38.92l4.86,2.43L91.52,45l7.77,2.71,10,3.4,8,2.64,6.73,2.15,6.73,2.08,5.76,1.87,1.48.48s.34.26,1.2,0,3-.94,3-.94L148,57.42l10.09-3.34,9.11-3,8.57-3L183,45.51l3.72-1.37L191,42.62A1.91,1.91,0,0,1,193,43,13,13,0,0,1,196,45.83a25.87,25.87,0,0,1,3.92,5.55c2.3,4,3.73,7.22,3.73,7.22a33.65,33.65,0,0,1,3,7.87c1.48,5.39,1.38,7.68,1.38,7.68s.06.59.56.67.63.18.95-.39a28,28,0,0,0,1.57-3A71.63,71.63,0,0,0,214,64.11s.21-.58,1-.18a22,22,0,0,1,4.35,2.77,27.75,27.75,0,0,1,3.81,3.46s1.46,1.4,2.16,2.27,1.05-.24,1.05-.24.23-1-1.2-5.72a18.18,18.18,0,0,0-4.68-7.67,42.13,42.13,0,0,0-7.91-6.8,105.25,105.25,0,0,0-9.7-6.12s-4-2.29-5.42-3-2.23-1.18-2.23-1.18-.5-.31-.1-.47,5.89-2.2,5.89-2.2L138.92,18Z" transform="translate(-22.25 -17.98)"/><path d="M100.27,52.06,137.94,64.7s.3.36,1.59,0,40-13.12,40-13.12.25-.11.27.23.68,7.61.68,7.61.64,6.38.73,6.83.15.89.15.89a2.63,2.63,0,0,1,.24,2.43,7.12,7.12,0,0,1-1.86,2.32s-4.74,4.84-18,11.34-17.25,7.35-17.25,7.35-3.34,2-9.35,0-14.4-5.83-14.4-5.83S102,76,98.59,70.79c0,0-.54-.68.2-3.36,0,0,.5-4.09.66-6.25S100.27,52.06,100.27,52.06Z" transform="translate(-22.25 -17.98)"/><path d="M107.18,84.91c-3.7-4.75-7.82-5.8-7.82-5.8a62.78,62.78,0,0,0-12.82-3,90.41,90.41,0,0,0-11.69-.86s-8.09.4-15.63,1.43a77.63,77.63,0,0,0-13.29,2.83,53.78,53.78,0,0,0-8,2.86,16.78,16.78,0,0,0-3.2,1.93,21.13,21.13,0,0,0-3,3.12s-3.23,4.47-4.19,8.21,1.92,4.24,1.92,4.24l19.06-.74s1.43-.05,1.28-.71-1.08-.69-1.08-.69A39,39,0,0,1,42,97.43s-2.07-.81-.52-1.72S51,93.5,51,93.5s.16,0,3.24-.59,4.92-.83,4.92-.83,4.84-.64,5.69-.83.3.38.3.38l-1.4,1.83L61.4,96.52l-3.5,4.69-8.56,11.57s-2.4,3.23-2.59,3.5a.47.47,0,0,1-.43.23c-2.2.36-4.3.53-4.3.53s-3.8-.16-6.16,1.77S31.3,125,31.3,125a6.68,6.68,0,0,0-.66,2.54c.05,1.07,1.34,1.55,1.34,1.55s2.9,1.25,3.37,1.43,0,.55,0,.55-3.28,4.46-6.2,8.72-4.65,7.48-4.65,7.48a33.72,33.72,0,0,0-2.16,4.57,4.49,4.49,0,0,0,0,2,2.17,2.17,0,0,0,1.2,1.1,4.34,4.34,0,0,0,2.77-.14,18.59,18.59,0,0,0,3.56-2.58,8.45,8.45,0,0,0,1.16-1.51,17,17,0,0,0,1-2.58,36.53,36.53,0,0,1,2.89-5.4L38.13,138s3.08-4.32,3.21-4.48.35,0,.35,0l2.11,1,6.73,3.3,11.2,5.44,9.08,4.56,8.85,4.64s7,3.89,9.26,4.92,2.24.73,2.24.73.53.11,1.18-.62a7.42,7.42,0,0,0,1-2.86,44.49,44.49,0,0,0,.14-6.61c-.19-3.74-.51-3.85-.51-3.85a3.9,3.9,0,0,0-.67-1.23,11.86,11.86,0,0,0-2.38-1.9,80.25,80.25,0,0,0-8.49-4.38s-3.66-1.95-10.75-4.95-16-6.41-16-6.41-6.53-2.38-7.44-2.65,0-.33,0-.33,16.58-1.13,25.94-2.65a146.6,146.6,0,0,0,17.55-4.07,29.37,29.37,0,0,0,11.9-6.67A21.69,21.69,0,0,0,109,97.36S110.89,89.67,107.18,84.91ZM102,97.18a6.3,6.3,0,0,1-1.48,2.89,15.15,15.15,0,0,1-3.77,3,39.71,39.71,0,0,1-7.07,3.35s-4.58,1.6-8.83,2.8-8,2-8,2l-5.25,1.17-4.21.93-4.75,1s-2.69.49-3.46.59-.29-.35-.29-.35l1.54-2L57.76,111l1.29-1.76s3.92-5.15,5-6.56,2.75-3.94,2.75-3.94a36,36,0,0,0,1.89-3.61,9.16,9.16,0,0,0,.58-2.88s-.06-1-.13-1.36.18-.42.18-.42c1.8-.22,6.31-.53,6.31-.53s7.27-.15,10.58,0a66.25,66.25,0,0,1,7.63,1A29.29,29.29,0,0,1,97.64,92c3,1,3.61,2.12,3.61,2.12A3,3,0,0,1,102,97.18Z" transform="translate(-22.25 -17.98)"/><path d="M192.84,127.26c.43-.44,1.95-1.87,5.76-6.36s8-10.48,8-10.48a80.47,80.47,0,0,0,8.42-15.61c3.5-8.79,2.69-13.12,2.69-13.12s.24-3.09-1.44-3.49-4.13,1.36-4.13,1.36-4.78,3.09-11,11.36a94.31,94.31,0,0,0-9.59,15.65,100.79,100.79,0,0,0-5.65,13A60.06,60.06,0,0,0,183,132.19s0,.15-.37.46a53.56,53.56,0,0,1-4.9,3.66c-1.93,1.16-1.95,1.62-5.19,2.54,0,0-4.5,1-5.09-2.29a11.37,11.37,0,0,1,.46-5.83s1.45-2.33,4-5.72a27.19,27.19,0,0,0,3.19-5.07,3.81,3.81,0,0,0,0-2.51c-.49-1.37-2.13-4.67-2.13-4.67s-.12-.3.09-.38,3.17-1.11,3.41-1.85a2.56,2.56,0,0,0,0-1.79c-.18-.67-1.41-3.4-3.26-4.31s-8,1.12-8,1.12a38.45,38.45,0,0,0-8.63,3.74c-5.13,2.89-14.48,9.45-18.87,14.7,0,0-3.75,3.73-3.65,7.28a1,1,0,0,1-.39.52c-.34.26-6.07,5.32-10.59,7.82s-8.24,2.85-10.48,2.35-3.58-3.08-3.58-3.08a14.57,14.57,0,0,1-.81-5.6s.55.13,10.24-4.71,13.21-10.68,13.21-10.68,3.16-4.81,1.88-8.26-5.44-3.35-5.44-3.35a20.83,20.83,0,0,0-6.14,1.07,33.8,33.8,0,0,0-5.6,2.57,56.11,56.11,0,0,0-13.1,11.78,24.74,24.74,0,0,0-4.26,20.72,13.69,13.69,0,0,0,4.74,7.32s1.51,1.66,6.49,1.7a19.15,19.15,0,0,0,9.42-2.87s2.45-1.68,4.46-3.31,5.37-5,5.37-5,3.43-3.68,4.06-4.49c0,0,.29-.42.32.06s.32,2.24.32,2.24a27.78,27.78,0,0,0,.81,2.78,36.1,36.1,0,0,0,1.74,3.7,17.59,17.59,0,0,0,3.61,4.41,3.14,3.14,0,0,0,3.59.37s1.74-.53,5.71-4.34,7.71-8,7.71-8l4.26-4.66c.6-.66-.15,1.07-.15,1.07a47.86,47.86,0,0,0-2.11,6.75,22.34,22.34,0,0,0-.75,7.21s.42,2.91,2.05,3.76a6.1,6.1,0,0,0,3.87.22s2.31-.43,6.58-3.67a79.87,79.87,0,0,0,8.43-7.64s2.47-2.54,3.32-3.46c0,0,.2-.26.2.06a25.62,25.62,0,0,0,1.17,7.34,17,17,0,0,0,2.92,5.27,5.31,5.31,0,0,0,3.25,1.93,12.72,12.72,0,0,0,3.71,0,19.73,19.73,0,0,0,5.23-2.64,34.26,34.26,0,0,0,5.47-4.8s2.72-2.92,5.44-6.29l2-2.62v-4.3s0-.15-.19.07-2.51,2.36-2.51,2.36-7.82,7.36-9.87,8a6.08,6.08,0,0,1-3.72.08,6.79,6.79,0,0,1-3.68-4.24c-1.15-3.35,0-8.7,0-8.7A4,4,0,0,1,192.84,127.26Zm2.08-10.16a17.18,17.18,0,0,1,.74-2.67,91.31,91.31,0,0,1,5-12,47.2,47.2,0,0,1,7.08-10.72s2.33-2.36,3.1-1.7.38,2.52.38,2.52-.43,3.49-5.44,12.26a72.92,72.92,0,0,1-11.26,14.8A14.32,14.32,0,0,1,194.92,117.1ZM109,128a4.34,4.34,0,0,1,.43-1.44,29.64,29.64,0,0,1,5-7.54,33.15,33.15,0,0,1,7.68-5.57s2.06-.88,2.84-.37.3,2.19.3,2.19-1.11,4-6.78,8.65-9.64,5.45-9.64,5.45A8.32,8.32,0,0,1,109,128Zm53-3.67c-2.44,3.13-5.91,7-5.91,7s-2.76,2.85-5.54,5.13a23.54,23.54,0,0,1-6.07,3.79,2.77,2.77,0,0,1-1.91,0,4.07,4.07,0,0,1-1.28-2.08,9.49,9.49,0,0,1,.94-6.48,17.64,17.64,0,0,1,4.86-5.34s1.56-1.6,8.43-5.47,14-6.9,14-6.9l-.2.46-1.71,2.42C166.74,118.18,164.5,121.21,162.06,124.33Z" transform="translate(-22.25 -17.98)"/></svg>