<svg id="Layer_1" data-name="Layer 1" xmlns="http://www.w3.org/2000/svg" viewBox="0 0 42.12 34.47"><title>ic_landline</title><path d="M22.5,20.55H17.4V18A2.55,2.55,0,0,1,20,15.45h0A2.55,2.55,0,0,1,22.5,18Z" transform="translate(-3.31 -6.64)"/><path d="M31.5,20.55H26.4V18A2.55,2.55,0,0,1,29,15.45h0A2.55,2.55,0,0,1,31.5,18Z" transform="translate(-3.31 -6.64)"/><path d="M43.4,22.09a5.9,5.9,0,0,1-.87.61,6.73,6.73,0,0,1-1,.52,2.13,2.13,0,0,1-2-.24l-6.73-4.82a1.56,1.56,0,0,1-.65-1.66,5.61,5.61,0,0,1,1.12-2.11,23.06,23.06,0,0,0-17.63-.26,5.55,5.55,0,0,1,1.06,2.15A1.57,1.57,0,0,1,15.83,18L8.22,22.22a2.13,2.13,0,0,1-2.13,0h0a5.26,5.26,0,0,1-.85-.64,5.34,5.34,0,0,1,.12-8.29c10.68-9,27.77-8.75,38.17.56A5.35,5.35,0,0,1,43.4,22.09Z" transform="translate(-3.31 -6.64)"/><path d="M93,78.75" transform="translate(-3.31 -6.64)"/><path d="M41,30.24A17,17,0,0,0,8,30.24a3.46,3.46,0,0,0-3,3.17v4.4c0,1.82,1.78,3.3,4,3.3H40c2.2,0,4-1.48,4-3.3v-4.4A3.46,3.46,0,0,0,41,30.24ZM24.51,35a7,7,0,1,1,7-7A7,7,0,0,1,24.51,35Z" transform="translate(-3.31 -6.64)"/><circle cx="21.19" cy="21.36" r="6"/></svg>