<svg id="Layer_1" data-name="Layer 1" xmlns="http://www.w3.org/2000/svg" viewBox="0 0 22.49 40.9"><title>ic_mobile</title><path d="M32.46,4.29H15.05a2.54,2.54,0,0,0-2.54,2.54V42.65a2.54,2.54,0,0,0,2.54,2.54H32.46A2.54,2.54,0,0,0,35,42.65V6.83A2.54,2.54,0,0,0,32.46,4.29ZM20.18,5.68h7.08a.36.36,0,0,1,.36.36.37.37,0,0,1-.36.37H20.18A.37.37,0,0,1,19.81,6,.36.36,0,0,1,20.18,5.68Zm3.57,38a2.07,2.07,0,1,1,2.08-2.07A2.07,2.07,0,0,1,23.75,43.63Zm8.5-5.9h-17V7.83h17Z" transform="translate(-12.51 -4.29)"/></svg>