<svg id="Layer_1" data-name="Layer 1" xmlns="http://www.w3.org/2000/svg" viewBox="0 0 32.23 24.41"><title>ic_mail</title><path d="M37.08,37H12.69A3.92,3.92,0,0,1,8.77,33V16.46a3.92,3.92,0,0,1,3.92-3.91H37.08A3.92,3.92,0,0,1,41,16.46V33A3.92,3.92,0,0,1,37.08,37ZM12.69,14.55a1.92,1.92,0,0,0-1.92,1.91V33A1.92,1.92,0,0,0,12.69,35H37.08A1.92,1.92,0,0,0,39,33V16.46a1.92,1.92,0,0,0-1.92-1.91Z" transform="translate(-8.77 -12.55)"/><path d="M24.83,28.67a4.58,4.58,0,0,1-3.25-1.34l-8.39-8.39a1,1,0,0,1,0-1.41,1,1,0,0,1,1.42,0L23,25.92a2.6,2.6,0,0,0,3.67,0l8.39-8.39a1,1,0,1,1,1.41,1.41l-8.39,8.39A4.55,4.55,0,0,1,24.83,28.67Z" transform="translate(-8.77 -12.55)"/></svg>