<svg id="Layer_1" data-name="Layer 1" xmlns="http://www.w3.org/2000/svg" viewBox="0 0 28.58 28.58"><title>ic_phone</title><path d="M16.29,10.4a4.94,4.94,0,0,1,.95.08,5.52,5.52,0,0,1,1,.25,1.63,1.63,0,0,1,1.05,1.34l.82,7.32a1.6,1.6,0,0,1-.74,1.54,5.58,5.58,0,0,1-2.12.82A17.22,17.22,0,0,0,27.81,32.31a5.68,5.68,0,0,1,.81-2.13,1.63,1.63,0,0,1,1.69-.71L37.81,31a1.6,1.6,0,0,1,1.27,1.29h0a6,6,0,0,1,.08.95A5.73,5.73,0,0,1,33.44,39,22.88,22.88,0,0,1,10.58,16.11,5.71,5.71,0,0,1,16.29,10.4Z" transform="translate(-10.58 -10.4)"/></svg>