<svg id="Layer_1" data-name="Layer 1" xmlns="http://www.w3.org/2000/svg" viewBox="0 0 37.26 35.54"><title>ic_star</title><path d="M35.9,42.77a1,1,0,0,1-.47-.12L25,37.17,14.57,42.65a1,1,0,0,1-1.45-1l2-11.62L6.67,21.76a1,1,0,0,1-.25-1,1,1,0,0,1,.8-.68l11.67-1.69L24.1,7.79a1,1,0,0,1,.9-.56h0a1,1,0,0,1,.9.56l5.21,10.57,11.67,1.69a1,1,0,0,1,.8.68,1,1,0,0,1-.25,1L34.89,30l2,11.62a1,1,0,0,1-.4,1A1,1,0,0,1,35.9,42.77ZM25,35a1.12,1.12,0,0,1,.47.11l9.1,4.79L32.83,29.8a1,1,0,0,1,.29-.88l7.36-7.18L30.3,20.26a1,1,0,0,1-.75-.55L25,10.49l-4.55,9.22a1,1,0,0,1-.75.55L9.52,21.74l7.36,7.18a1,1,0,0,1,.29.88L15.43,39.94l9.1-4.79A1.12,1.12,0,0,1,25,35Z" transform="translate(-6.37 -7.23)"/></svg>