<svg id="Layer_1" data-name="Layer 1" xmlns="http://www.w3.org/2000/svg" viewBox="0 0 26.59 31.38"><defs><style>.cls-1{fill:none;stroke:#000;stroke-linecap:round;stroke-linejoin:round;stroke-width:2px;}</style></defs><title>ic_user</title><path d="M25.48,28.18A9.2,9.2,0,1,1,34.68,19,9.2,9.2,0,0,1,25.48,28.18Zm0-16.39a7.2,7.2,0,1,0,7.2,7.2A7.21,7.21,0,0,0,25.48,11.79Z" transform="translate(-12.19 -9.79)"/><path d="M37.78,41.18a1,1,0,0,1-1-1,11.3,11.3,0,1,0-22.59,0,1,1,0,0,1-2,0,13.3,13.3,0,1,1,26.59,0A1,1,0,0,1,37.78,41.18Z" transform="translate(-12.19 -9.79)"/><path class="cls-1" d="M25.94,32.51" transform="translate(-12.19 -9.79)"/></svg>